<svg xmlns="http://www.w3.org/2000/svg" viewBox="0 0 192 192" width="192" height="192">
  <!-- 공간마켓 01 공간·연결형 — rounded badge (any / apple-touch) -->
  <rect width="192" height="192" rx="42" fill="#2E5F4B"/>
  <!-- mark: 48-grid geometry scaled with padding -->
  <g transform="translate(2.4 2.4) scale(3.9)" fill="none" stroke="#F7F3E9" stroke-width="2.2">
    <!-- 원형 연결 링 -->
    <circle cx="24" cy="24" r="20"/>
    <!-- 집 외곽 -->
    <path d="M13.8 21.6 L24 12.4 L34.2 21.6 L34.2 30.6 Q34.2 32.6 32.2 32.6 L15.8 32.6 Q13.8 32.6 13.8 30.6 Z"
      stroke-linejoin="round" stroke-linecap="round"/>
    <!-- 창문 2×2 -->
    <g fill="#F7F3E9" stroke="none">
      <rect x="18.0" y="17.8" width="3.0" height="3.0" rx="0.5"/>
      <rect x="22.0" y="17.8" width="3.0" height="3.0" rx="0.5"/>
      <rect x="18.0" y="21.8" width="3.0" height="3.0" rx="0.5"/>
      <rect x="22.0" y="21.8" width="3.0" height="3.0" rx="0.5"/>
    </g>
    <!-- 잎 -->
    <g fill="#6C9E6B" stroke="none">
      <path d="M27 32 C23 31 21.2 28 22 25.6 C25 26.6 27.2 29 27 32 Z"/>
      <path d="M27 32 C31 31 32.8 28 32 25.6 C29 26.6 26.8 29 27 32 Z"/>
    </g>
  </g>
</svg>
