<svg xmlns="http://www.w3.org/2000/svg" viewBox="0 0 48 48" width="48" height="48">
  <!-- 공간마켓 01 공간·연결형 — favicon -->
  <rect width="48" height="48" rx="11" fill="#2E5F4B"/>
  <!-- mark scaled to ~0.84 about center for padding -->
  <g transform="translate(3.84 3.84) scale(0.84)" fill="none" stroke="#F7F3E9" stroke-width="2.4">
    <circle cx="24" cy="24" r="20"/>
    <path d="M13.8 21.6 L24 12.4 L34.2 21.6 L34.2 30.6 Q34.2 32.6 32.2 32.6 L15.8 32.6 Q13.8 32.6 13.8 30.6 Z"
      stroke-linejoin="round" stroke-linecap="round"/>
    <g fill="#F7F3E9" stroke="none">
      <rect x="18.0" y="17.8" width="3.0" height="3.0" rx="0.5"/>
      <rect x="22.0" y="17.8" width="3.0" height="3.0" rx="0.5"/>
      <rect x="18.0" y="21.8" width="3.0" height="3.0" rx="0.5"/>
      <rect x="22.0" y="21.8" width="3.0" height="3.0" rx="0.5"/>
    </g>
    <g fill="#6C9E6B" stroke="none">
      <path d="M27 32 C23 31 21.2 28 22 25.6 C25 26.6 27.2 29 27 32 Z"/>
      <path d="M27 32 C31 31 32.8 28 32 25.6 C29 26.6 26.8 29 27 32 Z"/>
    </g>
  </g>
</svg>
